<?xml version="1.0" encoding="iso-8859-1"?>
<!-- Generator: Adobe Illustrator 17.1.0, SVG Export Plug-In . SVG Version: 6.00 Build 0)  -->
<!DOCTYPE svg PUBLIC "-//W3C//DTD SVG 1.1//EN" "http://www.w3.org/Graphics/SVG/1.1/DTD/svg11.dtd">
<svg version="1.1" id="Capa_1" xmlns="http://www.w3.org/2000/svg" xmlns:xlink="http://www.w3.org/1999/xlink" x="0px" y="0px"
	 viewBox="0 0 457.32 457.32" style="enable-background:new 0 0 457.32 457.32;" xml:space="preserve">
<g>
	<path d="M224.495,146.87c0,23.093,18.787,41.88,41.88,41.88h141.814c23.093,0,41.881-18.787,41.881-41.88
		c0-18.153-11.913-34.385-29.121-39.888c1.158-4.508,1.744-9.079,1.744-13.613c0-29.797-24.241-54.038-54.037-54.038
		c-1.444,0-2.877,0.059-4.296,0.169C352.902,16.132,328.872,0,301.137,0c-38.803,0-70.371,31.568-70.371,70.371
		c0,15.328,4.941,29.516,13.293,41.086C232.315,118.884,224.495,131.977,224.495,146.87z M301.137,30
		c14.911,0,27.95,8.132,34.941,20.187c-8.791,6.632-15.551,15.97-19.018,27.109c-0.009,0.031-0.019,0.062-0.027,0.092
		c-0.238-0.013-0.478-0.03-0.718-0.046c-0.624-0.043-1.331-0.091-2.088-0.091c-16.396,0-31.153,9.768-38.124,24.758
		c-9.334-7.401-15.338-18.828-15.338-31.638C260.766,48.11,278.876,30,301.137,30z"/>
	<path d="M441.193,316.501H21.431c-8.017,0-14.539,6.521-14.539,14.536s6.522,14.536,14.539,14.536h127.125
		c7.465,0,13.538,6.072,13.538,13.536c0,7.467-6.073,13.542-13.538,13.542H95.14c-8.019,0-14.542,6.521-14.542,14.536
		c0,8.017,6.523,14.539,14.542,14.539h91.639c5.606,1.656,9.711,6.842,9.711,12.977c0,7.467-6.073,13.542-13.539,13.542H60.706
		c-8.019,0-14.542,6.521-14.542,14.536c0,8.017,6.523,14.539,14.542,14.539h271.561c8.016,0,14.536-6.522,14.536-14.539
		c0-8.016-6.521-14.536-14.536-14.536h-19.112c-7.464,0-13.536-6.075-13.536-13.542c0-6.134,4.105-11.321,9.709-12.977h80.43
		c8.016,0,14.536-6.522,14.536-14.539c0-8.016-6.521-14.536-14.536-14.536h-88.553c-7.464,0-13.536-6.075-13.536-13.542
		c0-7.464,6.072-13.536,13.536-13.536h139.988c8.019,0,14.542-6.521,14.542-14.536S449.211,316.501,441.193,316.501z"/>
	<path d="M31.589,86.027c1.368,0.388,2.746,0.573,4.102,0.573c6.538-0.001,12.55-4.309,14.423-10.91
		c2.099-7.398,5.937-8.065,8.646-7.926c4.303,0.223,8.72,3.278,9.267,6.41c1.321,7.572,8.104,12.812,15.597,12.391
		c0.34,0.023,0.679,0.035,1.017,0.035c6.538-0.001,12.55-4.309,14.423-10.91c2.099-7.397,5.933-8.071,8.645-7.926
		c4.304,0.223,8.721,3.278,9.268,6.411c1.423,8.159,9.189,13.626,17.355,12.197c8.16-1.424,13.622-9.194,12.197-17.355
		c-2.987-17.12-18.66-30.248-37.266-31.213c-9.803-0.503-18.749,2.597-25.777,8.492c-6.419-4.931-14.474-8.041-23.17-8.492
		C41.965,36.857,26.641,48.51,21.252,67.503C18.992,75.473,23.62,83.766,31.589,86.027z"/>
	<path d="M96.229,124.44c-20.594-1.076-37.147,11.567-43.222,32.979c-2.261,7.97,2.367,16.263,10.337,18.524
		c1.368,0.388,2.746,0.573,4.102,0.573c6.538-0.001,12.55-4.309,14.423-10.91c2.232-7.872,6.446-11.543,12.805-11.207
		c6.363,0.33,12.465,4.769,13.324,9.691c1.336,7.657,8.254,12.938,15.846,12.384c0.364,0.027,0.726,0.042,1.087,0.042
		c6.538,0,12.55-4.309,14.423-10.91c2.233-7.872,6.431-11.543,12.804-11.207c6.363,0.33,12.466,4.769,13.325,9.691
		c1.424,8.16,9.19,13.626,17.354,12.198c8.161-1.424,13.623-9.194,12.198-17.354c-3.301-18.917-20.68-33.424-41.324-34.495
		c-11.769-0.602-22.219,3.274-30.15,10.701C116.201,128.934,106.631,124.98,96.229,124.44z"/>
	<path d="M16.597,268.879c6.538-0.001,12.55-4.309,14.423-10.91c2.829-9.973,8.471-14.821,16.826-14.379
		c8.348,0.434,16.085,6.204,17.247,12.863c1.344,7.703,8.341,12.993,15.986,12.366c0.42,0.035,0.839,0.059,1.255,0.059
		c6.538-0.001,12.55-4.309,14.423-10.91c2.83-9.973,8.467-14.821,16.826-14.379c8.348,0.434,16.085,6.204,17.247,12.863
		c1.424,8.161,9.188,13.622,17.354,12.198c8.161-1.424,13.622-9.193,12.198-17.354c-3.545-20.318-22.995-36.512-45.244-37.667
		c-11.387-0.594-24.448,2.97-34.419,13.119c-8.297-7.567-19.405-12.501-31.318-13.119c-17.627-0.919-39.285,8.103-47.243,36.151
		c-2.261,7.97,2.367,16.264,10.337,18.524C13.864,268.693,15.242,268.879,16.597,268.879z"/>
</g>
<g>
</g>
<g>
</g>
<g>
</g>
<g>
</g>
<g>
</g>
<g>
</g>
<g>
</g>
<g>
</g>
<g>
</g>
<g>
</g>
<g>
</g>
<g>
</g>
<g>
</g>
<g>
</g>
<g>
</g>
</svg>
